<?xml version="1.0" encoding="UTF-8" standalone="no"?>
<!DOCTYPE svg PUBLIC "-//W3C//DTD SVG 1.1//EN"
 "http://www.w3.org/Graphics/SVG/1.1/DTD/svg11.dtd">
<!-- Generated by graphviz version 2.43.0 (0)
 -->
<!-- Title: G Pages: 1 -->
<svg width="613pt" height="230pt"
 viewBox="0.00 0.00 613.20 230.20" xmlns="http://www.w3.org/2000/svg" xmlns:xlink="http://www.w3.org/1999/xlink">
<g id="graph0" class="graph" transform="scale(1 1) rotate(0) translate(21.6 208.6)">
<title>G</title>
<polygon fill="#111111" stroke="transparent" points="-21.6,21.6 -21.6,-208.6 591.6,-208.6 591.6,21.6 -21.6,21.6"/>
<!-- api.js -->
<g id="node1" class="node">
<title>api.js</title>
<path fill="none" stroke="#cfffac" d="M101.33,-23C101.33,-23 62.67,-23 62.67,-23 58.83,-23 55,-19.17 55,-15.33 55,-15.33 55,-7.67 55,-7.67 55,-3.83 58.83,0 62.67,0 62.67,0 101.33,0 101.33,0 105.17,0 109,-3.83 109,-7.67 109,-7.67 109,-15.33 109,-15.33 109,-19.17 105.17,-23 101.33,-23"/>
<text text-anchor="middle" x="82" y="-7.8" font-family="Arial" font-size="14.00" fill="#cfffac">api.js</text>
</g>
<!-- services/articleService.js -->
<g id="node2" class="node">
<title>services/articleService.js</title>
<path fill="none" stroke="#cfffac" d="M156.33,-64C156.33,-64 7.67,-64 7.67,-64 3.83,-64 0,-60.17 0,-56.33 0,-56.33 0,-48.67 0,-48.67 0,-44.83 3.83,-41 7.67,-41 7.67,-41 156.33,-41 156.33,-41 160.17,-41 164,-44.83 164,-48.67 164,-48.67 164,-56.33 164,-56.33 164,-60.17 160.17,-64 156.33,-64"/>
<text text-anchor="middle" x="82" y="-48.8" font-family="Arial" font-size="14.00" fill="#cfffac">services/articleService.js</text>
</g>
<!-- services/authService.js -->
<g id="node3" class="node">
<title>services/authService.js</title>
<path fill="none" stroke="#ff6c60" d="M353.83,-187C353.83,-187 214.17,-187 214.17,-187 210.33,-187 206.5,-183.17 206.5,-179.33 206.5,-179.33 206.5,-171.67 206.5,-171.67 206.5,-167.83 210.33,-164 214.17,-164 214.17,-164 353.83,-164 353.83,-164 357.67,-164 361.5,-167.83 361.5,-171.67 361.5,-171.67 361.5,-179.33 361.5,-179.33 361.5,-183.17 357.67,-187 353.83,-187"/>
<text text-anchor="middle" x="284" y="-171.8" font-family="Arial" font-size="14.00" fill="#ff6c60">services/authService.js</text>
</g>
<!-- services/axiosInstance.js -->
<g id="node4" class="node">
<title>services/axiosInstance.js</title>
<path fill="none" stroke="#ff6c60" d="M562.33,-146C562.33,-146 411.67,-146 411.67,-146 407.83,-146 404,-142.17 404,-138.33 404,-138.33 404,-130.67 404,-130.67 404,-126.83 407.83,-123 411.67,-123 411.67,-123 562.33,-123 562.33,-123 566.17,-123 570,-126.83 570,-130.67 570,-130.67 570,-138.33 570,-138.33 570,-142.17 566.17,-146 562.33,-146"/>
<text text-anchor="middle" x="487" y="-130.8" font-family="Arial" font-size="14.00" fill="#ff6c60">services/axiosInstance.js</text>
</g>
<!-- services/authService.js&#45;&gt;services/axiosInstance.js -->
<g id="edge1" class="edge">
<title>services/authService.js&#45;&gt;services/axiosInstance.js</title>
<path fill="none" stroke="#757575" d="M316.85,-163.91C337.65,-158.45 365.97,-152.12 393.49,-146.64"/>
<polygon fill="#757575" stroke="#757575" points="394.43,-150.02 403.57,-144.66 393.08,-143.15 394.43,-150.02"/>
</g>
<!-- services/axiosInstance.js&#45;&gt;services/authService.js -->
<g id="edge2" class="edge">
<title>services/axiosInstance.js&#45;&gt;services/authService.js</title>
<path fill="none" stroke="#757575" d="M454.25,-146.06C431.91,-151.94 400.87,-158.8 371.46,-164.56"/>
<polygon fill="#757575" stroke="#757575" points="370.72,-161.13 361.56,-166.46 372.04,-168.01 370.72,-161.13"/>
</g>
<!-- store/index.js -->
<g id="node5" class="node">
<title>store/index.js</title>
<path fill="none" stroke="#c6c5fe" d="M122.33,-105C122.33,-105 41.67,-105 41.67,-105 37.83,-105 34,-101.17 34,-97.33 34,-97.33 34,-89.67 34,-89.67 34,-85.83 37.83,-82 41.67,-82 41.67,-82 122.33,-82 122.33,-82 126.17,-82 130,-85.83 130,-89.67 130,-89.67 130,-97.33 130,-97.33 130,-101.17 126.17,-105 122.33,-105"/>
<text text-anchor="middle" x="82" y="-89.8" font-family="Arial" font-size="14.00" fill="#c6c5fe">store/index.js</text>
</g>
<!-- store/slices/adminSlice.js -->
<g id="node6" class="node">
<title>store/slices/adminSlice.js</title>
<path fill="none" stroke="#cfffac" d="M360.33,-146C360.33,-146 207.67,-146 207.67,-146 203.83,-146 200,-142.17 200,-138.33 200,-138.33 200,-130.67 200,-130.67 200,-126.83 203.83,-123 207.67,-123 207.67,-123 360.33,-123 360.33,-123 364.17,-123 368,-126.83 368,-130.67 368,-130.67 368,-138.33 368,-138.33 368,-142.17 364.17,-146 360.33,-146"/>
<text text-anchor="middle" x="284" y="-130.8" font-family="Arial" font-size="14.00" fill="#cfffac">store/slices/adminSlice.js</text>
</g>
<!-- store/index.js&#45;&gt;store/slices/adminSlice.js -->
<g id="edge3" class="edge">
<title>store/index.js&#45;&gt;store/slices/adminSlice.js</title>
<path fill="none" stroke="#757575" d="M130.14,-103.16C155.97,-108.46 188.4,-115.11 216.73,-120.92"/>
<polygon fill="#757575" stroke="#757575" points="216.07,-124.35 226.57,-122.93 217.47,-117.49 216.07,-124.35"/>
</g>
<!-- store/slices/newsSlice.js -->
<g id="node7" class="node">
<title>store/slices/newsSlice.js</title>
<path fill="none" stroke="#c6c5fe" d="M357.33,-105C357.33,-105 210.67,-105 210.67,-105 206.83,-105 203,-101.17 203,-97.33 203,-97.33 203,-89.67 203,-89.67 203,-85.83 206.83,-82 210.67,-82 210.67,-82 357.33,-82 357.33,-82 361.17,-82 365,-85.83 365,-89.67 365,-89.67 365,-97.33 365,-97.33 365,-101.17 361.17,-105 357.33,-105"/>
<text text-anchor="middle" x="284" y="-89.8" font-family="Arial" font-size="14.00" fill="#c6c5fe">store/slices/newsSlice.js</text>
</g>
<!-- store/index.js&#45;&gt;store/slices/newsSlice.js -->
<g id="edge4" class="edge">
<title>store/index.js&#45;&gt;store/slices/newsSlice.js</title>
<path fill="none" stroke="#757575" d="M130.14,-93.5C148.89,-93.5 171.11,-93.5 192.72,-93.5"/>
<polygon fill="#757575" stroke="#757575" points="192.92,-97 202.92,-93.5 192.92,-90 192.92,-97"/>
</g>
<!-- store/slices/userSlice.js -->
<g id="node8" class="node">
<title>store/slices/userSlice.js</title>
<path fill="none" stroke="#c6c5fe" d="M354.83,-64C354.83,-64 213.17,-64 213.17,-64 209.33,-64 205.5,-60.17 205.5,-56.33 205.5,-56.33 205.5,-48.67 205.5,-48.67 205.5,-44.83 209.33,-41 213.17,-41 213.17,-41 354.83,-41 354.83,-41 358.67,-41 362.5,-44.83 362.5,-48.67 362.5,-48.67 362.5,-56.33 362.5,-56.33 362.5,-60.17 358.67,-64 354.83,-64"/>
<text text-anchor="middle" x="284" y="-48.8" font-family="Arial" font-size="14.00" fill="#c6c5fe">store/slices/userSlice.js</text>
</g>
<!-- store/index.js&#45;&gt;store/slices/userSlice.js -->
<g id="edge5" class="edge">
<title>store/index.js&#45;&gt;store/slices/userSlice.js</title>
<path fill="none" stroke="#757575" d="M130.14,-83.84C155.97,-78.54 188.4,-71.89 216.73,-66.08"/>
<polygon fill="#757575" stroke="#757575" points="217.47,-69.51 226.57,-64.07 216.07,-62.65 217.47,-69.51"/>
</g>
<!-- store/slices/newsSlice.js&#45;&gt;services/axiosInstance.js -->
<g id="edge6" class="edge">
<title>store/slices/newsSlice.js&#45;&gt;services/axiosInstance.js</title>
<path fill="none" stroke="#757575" d="M341.52,-105.03C365.82,-109.99 394.38,-115.81 419.67,-120.97"/>
<polygon fill="#757575" stroke="#757575" points="419.05,-124.42 429.55,-122.99 420.45,-117.56 419.05,-124.42"/>
</g>
<!-- store/slices/userSlice.js&#45;&gt;services/axiosInstance.js -->
<g id="edge7" class="edge">
<title>store/slices/userSlice.js&#45;&gt;services/axiosInstance.js</title>
<path fill="none" stroke="#757575" d="M338.25,-64.04C348.26,-66.75 358.55,-69.92 368,-73.5 400.17,-85.7 434.92,-104.4 458.32,-117.88"/>
<polygon fill="#757575" stroke="#757575" points="456.6,-120.93 467,-122.94 460.13,-114.88 456.6,-120.93"/>
</g>
<!-- theme/colors.js -->
<g id="node9" class="node">
<title>theme/colors.js</title>
<path fill="none" stroke="#cfffac" d="M128.33,-146C128.33,-146 35.67,-146 35.67,-146 31.83,-146 28,-142.17 28,-138.33 28,-138.33 28,-130.67 28,-130.67 28,-126.83 31.83,-123 35.67,-123 35.67,-123 128.33,-123 128.33,-123 132.17,-123 136,-126.83 136,-130.67 136,-130.67 136,-138.33 136,-138.33 136,-142.17 132.17,-146 128.33,-146"/>
<text text-anchor="middle" x="82" y="-130.8" font-family="Arial" font-size="14.00" fill="#cfffac">theme/colors.js</text>
</g>
</g>
</svg>
